<?xml version="1.0" encoding="UTF-8" standalone="no"?>
<!DOCTYPE svg PUBLIC "-//W3C//DTD SVG 1.1//EN"
 "http://www.w3.org/Graphics/SVG/1.1/DTD/svg11.dtd">
<!-- Generated by graphviz version 2.40.1 (20161225.0304)
 -->
<!-- Title: g Pages: 1 -->
<svg width="277pt" height="188pt"
 viewBox="0.00 0.00 276.96 188.00" xmlns="http://www.w3.org/2000/svg" xmlns:xlink="http://www.w3.org/1999/xlink">
<g id="graph0" class="graph" transform="scale(1 1) rotate(0) translate(4 184)">
<title>g</title>
<polygon fill="#ffffff" stroke="transparent" points="-4,4 -4,-184 272.9649,-184 272.9649,4 -4,4"/>
<!-- Server -->
<g id="node1" class="node">
<title>Server</title>
<polygon fill="#ffa500" stroke="#ffa500" points="197.998,-180 138.9883,-180 138.9883,-144 197.998,-144 197.998,-180"/>
<text text-anchor="start" x="146.9907" y="-164.8" font-family="Times,serif" font-size="14.00" fill="#000000">Server</text>
<text text-anchor="middle" x="168.4932" y="-150.8" font-family="Times,serif" font-size="14.00" fill="#000000">&lt;Core&gt;</text>
</g>
<!-- Network -->
<g id="node2" class="node">
<title>Network</title>
<polygon fill="#ffa500" stroke="#ffa500" points="64.9795,-108 .0068,-108 .0068,-72 64.9795,-72 64.9795,-108"/>
<text text-anchor="start" x="8" y="-92.8" font-family="Times,serif" font-size="14.00" fill="#000000">Network</text>
<text text-anchor="middle" x="32.4932" y="-78.8" font-family="Times,serif" font-size="14.00" fill="#000000">&lt;Core&gt;</text>
</g>
<!-- Server&#45;&gt;Network -->
<g id="edge1" class="edge">
<title>Server&#45;&gt;Network</title>
<path fill="none" stroke="#000000" d="M138.9832,-146.3771C117.2651,-134.8793 87.7367,-119.2466 65.2822,-107.3589"/>
</g>
<!-- Image -->
<g id="node3" class="node">
<title>Image</title>
<polygon fill="#adff2f" stroke="#adff2f" points="159.6222,-108 83.3641,-108 83.3641,-72 159.6222,-72 159.6222,-108"/>
<text text-anchor="start" x="91.4287" y="-92.8" font-family="Times,serif" font-size="14.00" fill="#000000">Image</text>
<text text-anchor="middle" x="121.4932" y="-78.8" font-family="Times,serif" font-size="14.00" fill="#000000">&lt;Support&gt;</text>
</g>
<!-- Server&#45;&gt;Image -->
<g id="edge2" class="edge">
<title>Server&#45;&gt;Image</title>
<path fill="none" stroke="#000000" d="M156.6331,-143.8314C149.5626,-133 140.6114,-119.2876 133.5129,-108.4133"/>
</g>
<!-- Host -->
<g id="node4" class="node">
<title>Host</title>
<polygon fill="#adff2f" stroke="#adff2f" points="253.6222,-108 177.3641,-108 177.3641,-72 253.6222,-72 253.6222,-108"/>
<text text-anchor="start" x="185.4287" y="-92.8" font-family="Times,serif" font-size="14.00" fill="#000000">Host</text>
<text text-anchor="middle" x="215.4932" y="-78.8" font-family="Times,serif" font-size="14.00" fill="#000000">&lt;Support&gt;</text>
</g>
<!-- Server&#45;&gt;Host -->
<g id="edge3" class="edge">
<title>Server&#45;&gt;Host</title>
<path fill="none" stroke="#000000" d="M180.3532,-143.8314C187.4237,-133 196.3749,-119.2876 203.4734,-108.4133"/>
</g>
<!-- IAM -->
<g id="node5" class="node">
<title>IAM</title>
<polygon fill="#a52a2a" stroke="#a52a2a" points="159.5879,-36 83.3984,-36 83.3984,0 159.5879,0 159.5879,-36"/>
<text text-anchor="start" x="91.4458" y="-20.8" font-family="Times,serif" font-size="14.00" fill="#000000">IAM</text>
<text text-anchor="middle" x="121.4932" y="-6.8" font-family="Times,serif" font-size="14.00" fill="#000000">&lt;Generic&gt;</text>
</g>
<!-- Server&#45;&gt;IAM -->
<g id="edge4" class="edge">
<title>Server&#45;&gt;IAM</title>
<path fill="none" stroke="#000000" stroke-dasharray="1,5" d="M198.0202,-153.8304C220.09,-146.0014 248.7284,-131.7818 262.4932,-108 270.5082,-94.1523 271.5608,-85.1825 262.4932,-72 250.4602,-54.5064 197.1928,-37.5287 159.6969,-27.4194"/>
</g>
<!-- Network&#45;&gt;IAM -->
<g id="edge5" class="edge">
<title>Network&#45;&gt;IAM</title>
<path fill="none" stroke="#000000" stroke-dasharray="1,5" d="M54.9516,-71.8314C68.4434,-60.9167 85.5514,-47.0764 99.0419,-36.1628"/>
</g>
<!-- Image&#45;&gt;IAM -->
<g id="edge6" class="edge">
<title>Image&#45;&gt;IAM</title>
<path fill="none" stroke="#000000" stroke-dasharray="1,5" d="M121.4932,-71.8314C121.4932,-61 121.4932,-47.2876 121.4932,-36.4133"/>
</g>
</g>
</svg>
