<?xml version="1.0" encoding="UTF-8" standalone="no"?>
<!DOCTYPE svg PUBLIC "-//W3C//DTD SVG 1.1//EN"
 "http://www.w3.org/Graphics/SVG/1.1/DTD/svg11.dtd">
<!-- Generated by graphviz version 2.40.1 (20161225.0304)
 -->
<!-- Title: g Pages: 1 -->
<svg width="418pt" height="280pt"
 viewBox="0.00 0.00 418.00 280.00" xmlns="http://www.w3.org/2000/svg" xmlns:xlink="http://www.w3.org/1999/xlink">
<g id="graph0" class="graph" transform="scale(1 1) rotate(0) translate(4 276)">
<title>g</title>
<polygon fill="#ffffff" stroke="transparent" points="-4,4 -4,-276 414,-276 414,4 -4,4"/>
<g id="clust1" class="cluster">
<title>cluster1</title>
<polygon fill="none" stroke="#000000" points="8,-104 8,-250 228,-250 228,-104 8,-104"/>
<text text-anchor="middle" x="118" y="-234.8" font-family="Times,serif" font-size="14.00" fill="#000000">Server</text>
</g>
<g id="clust3" class="cluster">
<title>cluster2</title>
<polygon fill="none" stroke="#000000" points="320,-8 320,-250 402,-250 402,-8 320,-8"/>
<text text-anchor="middle" x="361" y="-234.8" font-family="Times,serif" font-size="14.00" fill="#000000">Network</text>
</g>
<g id="clust6" class="cluster">
<title>cluster3</title>
<polygon fill="none" stroke="#000000" points="236,-104 236,-264 312,-264 312,-104 236,-104"/>
<text text-anchor="start" x="243.9355" y="-248.8" font-family="Times,serif" font-size="14.00" fill="#000000">Host</text>
<text text-anchor="middle" x="274" y="-234.8" font-family="Times,serif" font-size="14.00" fill="#000000">&lt;Support&gt;</text>
</g>
<g id="clust8" class="cluster">
<title>cluster4</title>
<polygon fill="none" stroke="#000000" points="75,-8 75,-96 167,-96 167,-8 75,-8"/>
<text text-anchor="start" x="90.9355" y="-80.8" font-family="Times,serif" font-size="14.00" fill="#000000">Image</text>
<text text-anchor="middle" x="121" y="-66.8" font-family="Times,serif" font-size="14.00" fill="#000000">&lt;Support&gt;</text>
</g>
<!-- Server -->
<g id="node1" class="node">
<title>Server</title>
<polygon fill="#ffa500" stroke="#ffa500" points="184,-220 130,-220 130,-184 184,-184 184,-220"/>
<text text-anchor="middle" x="157" y="-197.8" font-family="Times,serif" font-size="14.00" fill="#000000">Server</text>
</g>
<!-- Volumn -->
<g id="node2" class="node">
<title>Volumn</title>
<polygon fill="#ffa500" stroke="#ffa500" points="76.085,-148 15.915,-148 15.915,-112 76.085,-112 76.085,-148"/>
<text text-anchor="middle" x="46" y="-125.8" font-family="Times,serif" font-size="14.00" fill="#000000">Volumn</text>
</g>
<!-- Server&#45;&gt;Volumn -->
<g id="edge1" class="edge">
<title>Server&#45;&gt;Volumn</title>
<path fill="none" stroke="#000000" d="M129.8463,-184.3868C112.9022,-173.396 91.1395,-159.2797 74.0324,-148.1832"/>
</g>
<!-- Nic -->
<g id="node3" class="node">
<title>Nic</title>
<polygon fill="#ffa500" stroke="#ffa500" points="220,-148 166,-148 166,-112 220,-112 220,-148"/>
<text text-anchor="middle" x="193" y="-125.8" font-family="Times,serif" font-size="14.00" fill="#000000">Nic</text>
</g>
<!-- Server&#45;&gt;Nic -->
<g id="edge2" class="edge">
<title>Server&#45;&gt;Nic</title>
<path fill="none" stroke="#000000" d="M166.0843,-183.8314C171.5,-173 178.3562,-159.2876 183.7934,-148.4133"/>
</g>
<!-- ServerImage -->
<g id="node4" class="node">
<title>ServerImage</title>
<polygon fill="#ffa500" stroke="#ffa500" points="148,-148 94,-148 94,-112 148,-112 148,-148"/>
<text text-anchor="middle" x="121" y="-125.8" font-family="Times,serif" font-size="14.00" fill="#000000">Image</text>
</g>
<!-- Server&#45;&gt;ServerImage -->
<g id="edge3" class="edge">
<title>Server&#45;&gt;ServerImage</title>
<path fill="none" stroke="#000000" d="M147.9157,-183.8314C142.5,-173 135.6438,-159.2876 130.2066,-148.4133"/>
</g>
<!-- VM -->
<g id="node9" class="node">
<title>VM</title>
<polygon fill="#adff2f" stroke="#adff2f" points="298,-148 244,-148 244,-112 298,-112 298,-148"/>
<text text-anchor="middle" x="271" y="-125.8" font-family="Times,serif" font-size="14.00" fill="#000000">VM</text>
</g>
<!-- Server&#45;&gt;VM -->
<g id="edge9" class="edge">
<title>Server&#45;&gt;VM</title>
<path fill="none" stroke="#000000" d="M184.0164,-184.937C202.0572,-173.5428 225.7002,-158.6104 243.7824,-147.19"/>
</g>
<!-- Port -->
<g id="node7" class="node">
<title>Port</title>
<polygon fill="#ffa500" stroke="#ffa500" points="385,-52 331,-52 331,-16 385,-16 385,-52"/>
<text text-anchor="middle" x="358" y="-29.8" font-family="Times,serif" font-size="14.00" fill="#000000">Port</text>
</g>
<!-- Nic&#45;&gt;Port -->
<g id="edge7" class="edge">
<title>Nic&#45;&gt;Port</title>
<path fill="none" stroke="#000000" d="M219.6696,-111.8086C223.7646,-109.1354 227.9703,-106.4571 232,-104 265.3304,-83.6771 304.8279,-62.1291 330.5996,-48.3957"/>
</g>
<!-- Image -->
<g id="node10" class="node">
<title>Image</title>
<polygon fill="#adff2f" stroke="#adff2f" points="159.129,-52 82.871,-52 82.871,-16 159.129,-16 159.129,-52"/>
<text text-anchor="start" x="90.9355" y="-36.8" font-family="Times,serif" font-size="14.00" fill="#000000">Image</text>
<text text-anchor="middle" x="121" y="-22.8" font-family="Times,serif" font-size="14.00" fill="#000000">&lt;Support&gt;</text>
</g>
<!-- ServerImage&#45;&gt;Image -->
<g id="edge8" class="edge">
<title>ServerImage&#45;&gt;Image</title>
<path fill="none" stroke="#000000" d="M121,-111.9431C121,-94.8885 121,-69.4369 121,-52.3023"/>
</g>
<!-- Netplane -->
<g id="node5" class="node">
<title>Netplane</title>
<polygon fill="#ffa500" stroke="#ffa500" points="394.0329,-220 327.9671,-220 327.9671,-184 394.0329,-184 394.0329,-220"/>
<text text-anchor="middle" x="361" y="-197.8" font-family="Times,serif" font-size="14.00" fill="#000000">Netplane</text>
</g>
<!-- Subnet -->
<g id="node6" class="node">
<title>Subnet</title>
<polygon fill="#ffa500" stroke="#ffa500" points="386.3898,-148 331.6102,-148 331.6102,-112 386.3898,-112 386.3898,-148"/>
<text text-anchor="middle" x="359" y="-125.8" font-family="Times,serif" font-size="14.00" fill="#000000">Subnet</text>
</g>
<!-- Netplane&#45;&gt;Subnet -->
<g id="edge4" class="edge">
<title>Netplane&#45;&gt;Subnet</title>
<path fill="none" stroke="#000000" d="M360.4953,-183.8314C360.1944,-173 359.8135,-159.2876 359.5115,-148.4133"/>
</g>
<!-- Subnet&#45;&gt;Port -->
<g id="edge5" class="edge">
<title>Subnet&#45;&gt;Port</title>
<path fill="none" stroke="#000000" d="M358.8119,-111.9431C358.6343,-94.8885 358.3691,-69.4369 358.1906,-52.3023"/>
</g>
<!-- Host -->
<g id="node8" class="node">
<title>Host</title>
<polygon fill="#adff2f" stroke="#adff2f" points="298,-220 244,-220 244,-184 298,-184 298,-220"/>
<text text-anchor="middle" x="271" y="-197.8" font-family="Times,serif" font-size="14.00" fill="#000000">Host</text>
</g>
<!-- Host&#45;&gt;VM -->
<g id="edge6" class="edge">
<title>Host&#45;&gt;VM</title>
<path fill="none" stroke="#000000" d="M271,-183.8314C271,-173 271,-159.2876 271,-148.4133"/>
</g>
</g>
</svg>
