<?xml version="1.0" encoding="UTF-8" standalone="no"?>
<!DOCTYPE svg PUBLIC "-//W3C//DTD SVG 1.1//EN"
 "http://www.w3.org/Graphics/SVG/1.1/DTD/svg11.dtd">
<!-- Generated by graphviz version 2.40.1 (20161225.0304)
 -->
<!-- Title: g Pages: 1 -->
<svg width="502pt" height="538pt"
 viewBox="0.00 0.00 502.00 538.00" xmlns="http://www.w3.org/2000/svg" xmlns:xlink="http://www.w3.org/1999/xlink">
<g id="graph0" class="graph" transform="scale(1 1) rotate(0) translate(4 534)">
<title>g</title>
<polygon fill="#ffffff" stroke="transparent" points="-4,4 -4,-534 498,-534 498,4 -4,4"/>
<g id="clust1" class="cluster">
<title>cluster1</title>
<polygon fill="none" stroke="#000000" points="8,-8 8,-415 228,-415 228,-8 8,-8"/>
<text text-anchor="middle" x="118" y="-399.8" font-family="Times,serif" font-size="14.00" fill="#000000">Server</text>
</g>
<g id="clust3" class="cluster">
<title>cluster5</title>
<polygon fill="none" stroke="#000000" points="96,-16 96,-90 210,-90 210,-16 96,-16"/>
<text text-anchor="middle" x="153" y="-74.8" font-family="Times,serif" font-size="14.00" fill="#000000">Context Mapping</text>
</g>
<g id="clust4" class="cluster">
<title>cluster2</title>
<polygon fill="none" stroke="#000000" points="236,-122 236,-508 318,-508 318,-122 236,-122"/>
<text text-anchor="middle" x="277" y="-492.8" font-family="Times,serif" font-size="14.00" fill="#000000">Network</text>
</g>
<g id="clust7" class="cluster">
<title>cluster3</title>
<polygon fill="none" stroke="#000000" points="326,-268 326,-522 402,-522 402,-268 326,-268"/>
<text text-anchor="start" x="333.9355" y="-506.8" font-family="Times,serif" font-size="14.00" fill="#000000">Host</text>
<text text-anchor="middle" x="364" y="-492.8" font-family="Times,serif" font-size="14.00" fill="#000000">&lt;Support&gt;</text>
</g>
<g id="clust9" class="cluster">
<title>cluster4</title>
<polygon fill="none" stroke="#000000" points="410,-434 410,-522 486,-522 486,-434 410,-434"/>
<text text-anchor="start" x="417.9355" y="-506.8" font-family="Times,serif" font-size="14.00" fill="#000000">Image</text>
<text text-anchor="middle" x="448" y="-492.8" font-family="Times,serif" font-size="14.00" fill="#000000">&lt;Support&gt;</text>
</g>
<!-- Server -->
<g id="node1" class="node">
<title>Server</title>
<polygon fill="#ffa500" stroke="#ffa500" points="148,-385 94,-385 94,-349 148,-349 148,-385"/>
<text text-anchor="middle" x="121" y="-362.8" font-family="Times,serif" font-size="14.00" fill="#000000">Server</text>
</g>
<!-- Volumn -->
<g id="node2" class="node">
<title>Volumn</title>
<polygon fill="#ffa500" stroke="#ffa500" points="76.085,-239 15.915,-239 15.915,-203 76.085,-203 76.085,-239"/>
<text text-anchor="middle" x="46" y="-216.8" font-family="Times,serif" font-size="14.00" fill="#000000">Volumn</text>
</g>
<!-- Server&#45;&gt;Volumn -->
<g id="edge1" class="edge">
<title>Server&#45;&gt;Volumn</title>
<path fill="none" stroke="#000000" d="M111.6528,-348.8042C97.2809,-320.8267 69.9076,-267.5402 55.465,-239.4251"/>
</g>
<!-- Nic -->
<g id="node3" class="node">
<title>Nic</title>
<polygon fill="#ffa500" stroke="#ffa500" points="148,-239 94,-239 94,-203 148,-203 148,-239"/>
<text text-anchor="middle" x="121" y="-216.8" font-family="Times,serif" font-size="14.00" fill="#000000">Nic</text>
</g>
<!-- Server&#45;&gt;Nic -->
<g id="edge2" class="edge">
<title>Server&#45;&gt;Nic</title>
<path fill="none" stroke="#000000" d="M121,-348.8042C121,-320.8267 121,-267.5402 121,-239.4251"/>
</g>
<!-- ServerImage -->
<g id="node4" class="node">
<title>ServerImage</title>
<polygon fill="#ffa500" stroke="#ffa500" points="220,-239 166,-239 166,-203 220,-203 220,-239"/>
<text text-anchor="middle" x="193" y="-216.8" font-family="Times,serif" font-size="14.00" fill="#000000">Image</text>
</g>
<!-- Server&#45;&gt;ServerImage -->
<g id="edge3" class="edge">
<title>Server&#45;&gt;ServerImage</title>
<path fill="none" stroke="#000000" d="M129.9733,-348.8042C143.7704,-320.8267 170.0487,-267.5402 183.9136,-239.4251"/>
</g>
<!-- ServerPort -->
<g id="node5" class="node">
<title>ServerPort</title>
<polygon fill="#ffa500" stroke="#ffa500" points="178,-60 124,-60 124,-24 178,-24 178,-60"/>
<text text-anchor="middle" x="151" y="-37.8" font-family="Times,serif" font-size="14.00" fill="#000000">Port</text>
</g>
<!-- Nic&#45;&gt;ServerPort -->
<g id="edge4" class="edge">
<title>Nic&#45;&gt;ServerPort</title>
<path fill="none" stroke="#000000" d="M124.0417,-202.8515C129.7916,-168.5435 142.1941,-94.5416 147.9503,-60.1966"/>
</g>
<!-- Netplane -->
<g id="node6" class="node">
<title>Netplane</title>
<polygon fill="#ffa500" stroke="#ffa500" points="310.0329,-478 243.9671,-478 243.9671,-442 310.0329,-442 310.0329,-478"/>
<text text-anchor="middle" x="277" y="-455.8" font-family="Times,serif" font-size="14.00" fill="#000000">Netplane</text>
</g>
<!-- Subnet -->
<g id="node7" class="node">
<title>Subnet</title>
<polygon fill="#ffa500" stroke="#ffa500" points="301.3898,-312 246.6102,-312 246.6102,-276 301.3898,-276 301.3898,-312"/>
<text text-anchor="middle" x="274" y="-289.8" font-family="Times,serif" font-size="14.00" fill="#000000">Subnet</text>
</g>
<!-- Netplane&#45;&gt;Subnet -->
<g id="edge5" class="edge">
<title>Netplane&#45;&gt;Subnet</title>
<path fill="none" stroke="#000000" d="M276.6732,-441.9191C276.0962,-409.9875 274.9031,-343.9743 274.3264,-312.0586"/>
</g>
<!-- Port -->
<g id="node8" class="node">
<title>Port</title>
<polygon fill="#ffa500" stroke="#ffa500" points="299,-166 245,-166 245,-130 299,-130 299,-166"/>
<text text-anchor="middle" x="272" y="-143.8" font-family="Times,serif" font-size="14.00" fill="#000000">Port</text>
</g>
<!-- Subnet&#45;&gt;Port -->
<g id="edge6" class="edge">
<title>Subnet&#45;&gt;Port</title>
<path fill="none" stroke="#000000" d="M273.7507,-275.8042C273.3675,-247.8267 272.6375,-194.5402 272.2524,-166.4251"/>
</g>
<!-- Port&#45;&gt;ServerPort -->
<g id="edge8" class="edge">
<title>Port&#45;&gt;ServerPort</title>
<path fill="none" stroke="#000000" d="M251.1994,-129.778C231.4606,-112.4861 201.6276,-86.3514 179.6447,-67.0937"/>
<polygon fill="#000000" stroke="#000000" points="181.7624,-64.2958 171.9341,-60.339 177.1498,-69.5612 181.7624,-64.2958"/>
<text text-anchor="middle" x="267.8794" y="-100.8" font-family="Times,serif" font-size="14.00" fill="#000000">Sync/Validate</text>
</g>
<!-- Host -->
<g id="node9" class="node">
<title>Host</title>
<polygon fill="#adff2f" stroke="#adff2f" points="391,-478 337,-478 337,-442 391,-442 391,-478"/>
<text text-anchor="middle" x="364" y="-455.8" font-family="Times,serif" font-size="14.00" fill="#000000">Host</text>
</g>
<!-- VM -->
<g id="node10" class="node">
<title>VM</title>
<polygon fill="#adff2f" stroke="#adff2f" points="391,-312 337,-312 337,-276 391,-276 391,-312"/>
<text text-anchor="middle" x="364" y="-289.8" font-family="Times,serif" font-size="14.00" fill="#000000">VM</text>
</g>
<!-- Host&#45;&gt;VM -->
<g id="edge7" class="edge">
<title>Host&#45;&gt;VM</title>
<path fill="none" stroke="#000000" d="M364,-441.9191C364,-409.9875 364,-343.9743 364,-312.0586"/>
</g>
<!-- Image -->
<g id="node11" class="node">
<title>Image</title>
<polygon fill="#adff2f" stroke="#adff2f" points="475,-478 421,-478 421,-442 475,-442 475,-478"/>
<text text-anchor="middle" x="448" y="-455.8" font-family="Times,serif" font-size="14.00" fill="#000000">Image</text>
</g>
</g>
</svg>
